<mxfile host="app.diagrams.net" modified="2023-11-09T10:49:47.450Z" agent="Mozilla/5.0 (Windows NT 10.0; Win64; x64) AppleWebKit/537.36 (KHTML, like Gecko) Chrome/118.0.0.0 Safari/537.36" version="22.1.0" etag="7K_WSJ-HtL16VFdTQnnp" type="github">
  <diagram name="Page-1" id="ie9HzEcESETPM7TY7H3e">
    <mxGraphModel>
      <root>
        <mxCell id="0" />
        <mxCell id="1" parent="0" />
      </root>
    </mxGraphModel>
  </diagram>
</mxfile>
